<?xml version="1.0" encoding="UTF-8" standalone="no"?>
<!-- Created with Inkscape (http://www.inkscape.org/) -->

<svg
   xmlns:dc="http://purl.org/dc/elements/1.1/"
   xmlns:cc="http://creativecommons.org/ns#"
   xmlns:rdf="http://www.w3.org/1999/02/22-rdf-syntax-ns#"
   xmlns:svg="http://www.w3.org/2000/svg"
   xmlns="http://www.w3.org/2000/svg"
   xmlns:sodipodi="http://sodipodi.sourceforge.net/DTD/sodipodi-0.dtd"
   xmlns:inkscape="http://www.inkscape.org/namespaces/inkscape"
   version="1.1"
   id="svg80"
   width="1365.3333"
   height="1365.3333"
   viewBox="0 0 1365.3333 1365.3333"
   sodipodi:docname="icon_1.svg"
   inkscape:version="0.92.2 (unknown)">
  <metadata
     id="metadata86">
    <rdf:RDF>
      <cc:Work
         rdf:about="">
        <dc:format>image/svg+xml</dc:format>
        <dc:type
           rdf:resource="http://purl.org/dc/dcmitype/StillImage" />
        <dc:title></dc:title>
      </cc:Work>
    </rdf:RDF>
  </metadata>
  <defs
     id="defs84" />
  <sodipodi:namedview
     pagecolor="#ffffff"
     bordercolor="#666666"
     borderopacity="1"
     objecttolerance="10"
     gridtolerance="10"
     guidetolerance="10"
     inkscape:pageopacity="0"
     inkscape:pageshadow="2"
     inkscape:window-width="1623"
     inkscape:window-height="1026"
     id="namedview82"
     showgrid="false"
     inkscape:object-paths="false"
     inkscape:zoom="0.45782405"
     inkscape:cx="939.37688"
     inkscape:cy="563.84819"
     inkscape:window-x="57"
     inkscape:window-y="24"
     inkscape:window-maximized="1"
     inkscape:current-layer="layer1" />
  <g
     inkscape:groupmode="layer"
     id="layer1"
     inkscape:label="Layer 1"
     style="display:inline">
    <path
       style="fill:#000000;stroke-width:1.33333325;image-rendering:auto"
       d="m 1110.5703,951.90466 c -2.6709,-2.3528 -9.5709,-7.11468 -15.3333,-10.58194 -28.1541,-16.9402 -61.1771,-20.37068 -92.7071,-9.63053 -4.89311,1.66675 -9.24311,2.68389 -9.66668,2.26032 -0.42357,-0.42356 -0.77013,-3.18076 -0.77013,-6.12709 0,-5.1558 -1.1148,-10.28606 -6.77498,-31.17822 -8.57881,-31.66513 -37.30625,-71.47435 -65.89169,-91.30986 -16.09633,-11.16928 -28.74383,-18.16233 -38,-21.01097 -3.3,-1.0156 -6.6,-2.23315 -7.33333,-2.70567 -1.2704,-0.81859 -13.3384,-4.26192 -23.33333,-6.65765 -16.09326,-3.85748 -51.52722,-3.87248 -68,-0.0288 -2.56667,0.5989 -7.66667,1.78434 -11.33334,2.63433 -3.66666,0.84997 -8.40885,2.4108 -10.53818,3.46849 -5.73815,2.85028 -6.50802,2.50912 -9.95219,-4.41025 -1.73386,-3.48333 -4.36512,-8.73333 -5.84725,-11.66667 -13.72655,-27.16663 -42.35329,-58.14094 -70.15365,-75.90661 -15.74851,-10.06401 -41.80735,-21.58793 -56.17538,-24.84228 -2.56667,-0.58134 -8.86644,-2.00066 -13.9995,-3.15404 -11.15895,-2.50737 -62.98214,-2.9821 -71.8458,-0.65816 -3.01842,0.7914 -7.88803,2.04091 -10.82136,2.77668 -19.37824,4.86072 -20.6623,5.31555 -42,14.87723 -1.83334,0.82153 -6.49499,3.46173 -10.35923,5.86712 -3.86424,2.40537 -7.35672,4.37341 -7.76106,4.37341 -0.40436,0 -4.74271,2.83948 -9.64079,6.30995 -32.81302,23.24928 -62.44322,62.3277 -73.56542,97.02338 -0.94032,2.93334 -2.18135,6.53334 -2.75783,8 -0.57648,1.46667 -1.34781,4.16667 -1.71408,6 -0.36627,1.83334 -1.65859,7.53334 -2.87181,12.66667 -1.21324,5.13333 -2.60876,14.13333 -3.10118,20 l -0.89528,10.66667 -4,0.31205 c -13.79193,1.07595 -28.48943,3.95207 -40.66666,7.95795 -11.91835,3.9207 -25.64057,9.99108 -28,12.38649 -0.36667,0.37227 -2.76667,1.84749 -5.33333,3.27829 -9.44512,5.26524 -21.63335,15.44767 -31.66667,26.45533 l -5.66667,6.21696 V 759.67573 c 0,-95.82276 -0.45758,-146.17432 -1.33333,-146.71556 -0.73333,-0.45322 -1.33333,-1.99677 -1.33333,-3.43012 0,-1.43333 -0.57127,-3.64792 -1.26948,-4.9213 -1.20112,-2.19058 -7.272,-19.20258 -11.53198,-32.31524 -1.07209,-3.3 -2.53034,-7.04186 -3.24056,-8.31524 -0.71022,-1.27339 -1.29132,-3.40339 -1.29132,-4.73334 0,-1.32994 -0.50024,-2.98809 -1.11164,-3.68476 -0.6114,-0.69666 -2.82234,-6.66666 -4.91318,-13.26666 -2.09086,-6.6 -4.29062,-12.57 -4.88836,-13.26667 -0.59775,-0.69667 -1.08682,-2.52667 -1.08682,-4.06667 0,-1.54 -0.48906,-3.37 -1.08681,-4.06666 -0.59775,-0.69667 -2.79751,-6.66667 -4.88836,-13.26667 -2.09084,-6.6 -4.30179,-12.57 -4.91319,-13.26667 -0.6114,-0.69666 -1.11164,-2.35481 -1.11164,-3.68476 0,-1.32994 -0.57188,-3.45994 -1.27085,-4.73333 -0.69897,-1.27339 -2.83778,-7.11524 -4.7529,-12.9819 -1.91514,-5.86667 -4.04324,-11.70852 -4.72915,-12.98191 -0.68591,-1.27339 -1.24709,-3.40339 -1.24709,-4.73333 0,-1.32995 -0.47752,-2.9881 -1.06115,-3.68476 -0.58363,-0.69667 -1.82329,-3.66667 -2.7548,-6.6 -0.93151,-2.93334 -2.20451,-6.53334 -2.82889,-8 -0.62438,-1.46667 -2.71283,-7.46667 -4.641,-13.33334 -1.92819,-5.86666 -4.07767,-11.70852 -4.77664,-12.9819 -0.69898,-1.27339 -1.27086,-3.40339 -1.27086,-4.73334 0,-1.32994 -0.60454,-3.02264 -1.34344,-3.76153 -0.88128,-0.88128 -1.22529,-30.21468 -1,-85.26666 l 0.34344,-83.92323 h 54 54 l 0.38151,13.80533 c 0.24968,9.03494 -0.15228,14.44852 -1.16326,15.66667 -1.24916,1.50513 -8.14752,1.86133 -36.04817,1.86133 h -34.50341 v 18 18 h 27.06666 c 19.27408,0 27.52731,0.46064 28.66667,1.6 1.02223,1.02223 1.6,6.22223 1.6,14.4 0,8.17778 -0.57777,13.37778 -1.6,14.4 -1.13936,1.13936 -9.39259,1.6 -28.66667,1.6 h -27.06666 v 34.02045 34.02044 l 38.2233,-0.35377 c 37.12246,-0.3436 38.23042,-0.43059 38.4699,-3.02045 0.22498,-2.43316 30.13406,-93.79736 32.73609,-100 0.61527,-1.46667 3.88336,-11.36667 7.26241,-22 3.37906,-10.63333 6.68518,-20.53333 7.34694,-22 0.66174,-1.46667 2.48052,-6.73125 4.0417,-11.69909 l 2.83852,-9.03243 21.32208,0.36576 21.32208,0.36576 5.33775,16.66667 c 2.93576,9.16666 5.85081,17.86666 6.47786,19.33333 0.62707,1.46667 3.33532,9.56667 6.01835,18 2.68303,8.43333 5.38711,16.53333 6.00908,18 2.79041,6.58009 30.59393,91.26608 30.59393,93.18525 0,1.77041 1.63916,2.14808 9.32333,2.14808 h 9.32331 l 0.34336,-83.66666 0.34335,-83.66667 18.77878,-0.36859 18.77877,-0.3686 4.22123,6.79052 c 2.32167,3.73479 4.22121,6.99622 4.22121,7.24762 0,0.25141 3.9,6.88869 8.66667,14.7495 4.76667,7.86083 8.66667,14.50914 8.66667,14.77402 0,0.26486 2.7,4.69386 6,9.8422 3.3,5.14833 6,9.57568 6,9.83854 0,0.26286 4.8,8.47271 10.66666,18.24411 5.86667,9.7714 10.66667,18.25019 10.66667,18.84176 0,0.59157 0.59279,1.07559 1.31729,1.07559 0.83808,0 1.4444,-18.31084 1.66667,-50.33334 l 0.34937,-50.33333 13.89095,-0.38245 c 10.20896,-0.28108 14.18391,0.0724 14.99616,1.33333 0.60785,0.94368 1.07931,38.61579 1.04765,83.71579 l -0.0576,81.99999 17.47343,0.37259 c 9.61037,0.20492 25.07712,0.20492 34.37054,0 l 16.89711,-0.37259 -6.95949,-4.46184 c -25.3283,-16.2384 -39.5056,-53.66831 -35.03882,-92.50703 4.26934,-37.12195 22.39302,-63.21454 49.12971,-70.73187 7.6072,-2.13885 29.51831,-2.71639 35.58362,-0.93792 23.0278,6.75223 38.53308,22.38264 45.30228,45.66788 1.21228,4.17008 2.0152,9.53756 1.78426,11.92772 -0.47342,4.89992 -1.51533,5.24323 -21.38657,7.04661 -11.74499,1.06591 -10.67768,2.00091 -15.2242,-13.33688 -3.26457,-11.01309 -12.12792,-20.05121 -20.96273,-21.37608 -13.79744,-2.06905 -22.34344,2.6011 -28.75914,15.71603 -11.37964,23.26223 -10.35626,62.06217 2.16303,82.00897 7.39296,11.77909 18.78497,16.16403 30.43504,11.71483 10.34053,-3.94908 17.00281,-12.77156 19.90463,-26.3586 0.42618,-1.9955 1.8178,-4.17663 3.09248,-4.84697 2.35933,-1.24075 27.18417,0.28396 29.67361,1.82252 1.96699,1.21566 1.58045,9.31407 -0.84233,17.64821 -4.3899,15.10069 -13.99043,27.61246 -27.5137,35.85688 -4.21666,2.57068 -7.66666,4.93052 -7.66666,5.24408 0,0.31357 21,0.57013 46.66666,0.57013 h 46.66667 v -35.29277 c 0,-31.92399 -0.23628,-35.71028 -2.47535,-39.66667 -1.36137,-2.40564 -6.05107,-10.37389 -10.42148,-17.70722 -15.46799,-25.95452 -27.76119,-46.70054 -29.2328,-49.33334 -0.8198,-1.46666 -3.98541,-6.94304 -7.03469,-12.16973 -8.0324,-13.76811 -7.96143,-13.83027 15.79045,-13.83027 h 19.67409 l 15.71823,27 c 8.64503,14.85 16.37749,28.34532 17.18325,29.9896 1.50954,3.08043 4.79836,4.14251 4.79836,1.54956 0,-0.80346 1.10588,-3.05346 2.45752,-5 1.35164,-1.94653 5.34486,-8.93916 8.87383,-15.53916 3.52896,-6.6 7.14963,-13.2 8.04591,-14.66666 0.89629,-1.46667 3.40233,-5.96667 5.56897,-10 7.81587,-14.5497 5.67967,-13.33334 23.41635,-13.33334 13.20598,0 15.85258,0.3426 16.54287,2.1415 0.84464,2.20108 -0.98962,6.33781 -9.98782,22.52517 -2.85352,5.13333 -7.17648,12.93333 -9.60657,17.33333 -2.43011,4.4 -9.11923,16.32271 -14.86472,26.4949 -5.74548,10.1722 -10.44634,18.77957 -10.44634,19.1275 0,0.34794 -1.18181,2.29232 -2.62625,4.32084 -2.44797,3.43787 -2.63471,6.12182 -2.75093,39.53916 l -0.12467,35.85093 174.08423,0.3383 c 137.9336,0.26804 174.0801,0.68336 174.0642,2 -0.027,2.21041 -3.2439,11.37016 -4.3994,12.5257 -0.5026,0.50258 -0.9138,2.19378 -0.9138,3.75823 0,1.56444 -0.5003,3.41444 -1.1117,4.11111 -0.6114,0.69666 -2.8257,6.66666 -4.9206,13.26666 -2.0949,6.6 -4.1866,12.6 -4.6482,13.33334 -0.4615,0.73333 -1.6516,4.03333 -2.6445,7.33333 -0.993,3.3 -2.301,6.57 -2.9069,7.26667 -0.6058,0.69666 -1.1015,2.35481 -1.1015,3.68476 0,1.32994 -0.5612,3.45994 -1.2471,4.73333 -0.6859,1.27339 -2.825,7.11524 -4.7537,12.9819 -1.9286,5.86667 -4.0394,11.86667 -4.6906,13.33334 -0.6513,1.46666 -3.3364,9.26666 -5.967,17.33333 -2.6306,8.06667 -5.3586,15.70852 -6.0622,16.98191 -0.7037,1.27338 -1.2794,3.40338 -1.2794,4.73333 0,1.32995 -0.5002,2.98809 -1.1116,3.68476 -0.6114,0.69667 -2.8224,6.66667 -4.9132,13.26667 -2.0908,6.6 -4.2906,12.57 -4.8884,13.26666 -0.5977,0.69667 -1.0868,2.35482 -1.0868,3.68476 0,1.32995 -0.53,3.45995 -1.1777,4.73334 -1.8729,3.68173 -3.8768,8.75698 -4.5993,11.64857 -0.3664,1.46667 -2.8165,8.79017 -5.4446,16.27445 l -4.7784,13.60779 v 169.39221 c 0,93.16572 -0.45,169.36723 -1,169.3367 -0.55,-0.0305 -3.1852,-1.98052 -5.8561,-4.33333 z M 621.15977,578.69351 c 1.19629,-1.1963 1.6,-16.50371 1.6,-60.66667 v -59.06666 h 18.71331 18.71331 l -0.37999,-13.66667 -0.37997,-13.66667 h -54.66666 -54.66666 l -0.37998,13.66667 -0.37998,13.66667 h 18.71332 18.7133 v 59.90223 c 0,55.92856 0.15479,59.94268 2.33334,60.51199 5.39636,1.41023 30.50878,0.87699 32.06666,-0.68089 z m 62.30975,0.83552 c 1.49036,-0.40044 3.47965,-2.64224 4.42065,-4.9818 0.941,-2.33955 2.27162,-5.29558 2.95692,-6.56896 0.6853,-1.27339 1.246,-3.23152 1.246,-4.35143 0,-1.11991 0.54152,-3.07804 1.20339,-4.35143 0.66185,-1.27338 1.96223,-4.87838 2.88972,-8.01112 l 1.68633,-5.69588 23.97015,0.36255 23.97015,0.36255 2.54634,8.66666 c 1.4005,4.76667 3.11356,9.70852 3.8068,10.98191 0.69325,1.27339 1.26045,3.10376 1.26045,4.06752 0,0.96375 0.75,3.36787 1.66667,5.34249 2.06743,4.4535 5.65737,5.21024 22.19212,4.67796 15.88476,-0.51136 16.57175,-1.2897 12.35185,-13.99473 -1.65784,-4.99133 -3.56229,-10.27515 -4.23212,-11.74181 -0.66984,-1.46667 -2.7687,-7.76667 -4.66416,-14 -1.89545,-6.23334 -4.0166,-12.37519 -4.71365,-13.64858 -0.69705,-1.27338 -1.26737,-3.23152 -1.26737,-4.35142 0,-1.11991 -0.53,-3.07804 -1.17778,-4.35143 -2.12717,-4.18156 -3.77773,-8.81881 -7.46817,-20.98191 -3.64328,-12.00769 -5.30207,-16.64236 -7.50961,-20.9819 -0.64778,-1.27339 -1.17778,-3.42339 -1.17778,-4.77777 0,-1.3544 -0.36901,-2.83156 -0.82004,-3.28259 -0.45102,-0.45101 -3.35601,-8.40689 -6.45553,-17.67971 -3.09953,-9.27282 -6.4805,-17.39462 -7.51329,-18.04844 -2.62208,-1.65992 -34.15365,-1.53256 -37.29879,0.15066 -1.41845,0.75913 -2.57901,2.52373 -2.57901,3.92132 0,1.39758 -0.6,2.91188 -1.33333,3.3651 -0.73334,0.45323 -1.33334,1.99678 -1.33334,3.43012 0,1.43334 -0.5402,3.64792 -1.20045,4.92131 -0.66024,1.27339 -2.28348,5.91524 -3.60719,10.31524 -1.3237,4.4 -2.8835,8.57 -3.46621,9.26667 -0.58272,0.69666 -1.05948,2.61125 -1.05948,4.25464 0,1.64338 -0.6,3.3588 -1.33333,3.81202 -0.73334,0.45323 -1.33334,2.16864 -1.33334,3.81203 0,1.64338 -0.5059,3.55797 -1.12422,4.25464 -0.61834,0.69666 -2.15351,4.86666 -3.4115,9.26666 -1.258,4.4 -2.85209,9.04186 -3.54244,10.31524 -0.69034,1.27339 -1.25517,3.48798 -1.25517,4.92131 0,1.43335 -0.6,2.97689 -1.33333,3.43012 -0.73334,0.45323 -1.33334,2.16864 -1.33334,3.81203 0,1.64338 -0.50113,3.55797 -1.11364,4.25464 -0.61249,0.69666 -2.75669,6.66666 -4.76488,13.26666 -2.00818,6.6 -4.20705,13.04186 -4.88636,14.31524 -0.67932,1.27339 -1.23512,3.48798 -1.23512,4.92131 0,1.43335 -0.6,2.97689 -1.33333,3.43012 -0.73333,0.45323 -1.33333,2.16864 -1.33333,3.81203 0,1.64338 -0.49567,3.55797 -1.1015,4.25464 -0.60582,0.69666 -1.92521,3.88741 -2.93197,7.09056 -1.68737,5.3686 -1.63345,5.96796 0.68967,7.66666 2.5375,1.85547 19.77017,2.58742 25.38689,1.0783 z m 23.29024,-61.17279 c 0,-0.33216 0.56688,-1.98216 1.25973,-3.66667 0.69286,-1.6845 3.75778,-11.01744 6.81092,-20.73986 5.08087,-16.17943 7.92935,-22.32764 7.92935,-17.11481 0,2.47549 3.59389,13.91315 5.37535,17.10718 0.71022,1.27339 1.29132,3.48797 1.29132,4.92131 0,1.43334 0.6,2.97689 1.33333,3.43012 0.73333,0.45322 1.33333,2.16864 1.33333,3.81202 0,1.64339 0.52254,3.55798 1.16119,4.25464 0.63865,0.69667 1.55009,2.91667 2.0254,4.93334 l 0.86421,3.66666 h -14.69206 c -8.08064,0 -14.69207,-0.27177 -14.69207,-0.60393 z m 128.40412,60.2706 c 2.014,-1.49376 2.28252,-6.14893 2.58817,-44.87027 0.30795,-39.01206 0.53119,-42.82812 2.30096,-39.33333 1.07795,2.12865 3.92795,7.03192 6.33333,10.89616 2.40538,3.86424 4.37342,7.61424 4.37342,8.33333 0,0.7191 0.6,1.30744 1.33333,1.30744 0.73333,0 1.33333,0.61287 1.33333,1.36192 0,0.74906 1.39728,3.59906 3.10507,6.33334 5.05419,8.0921 11.69124,19.21648 15.29624,25.63808 1.85259,3.3 4.62016,8.11489 6.15017,10.69977 1.53003,2.58487 4.79107,8.13829 7.24676,12.34095 2.62741,4.4965 5.6454,7.93565 7.33333,8.35669 1.57764,0.39353 8.86843,0.54011 16.20176,0.32572 l 13.33334,-0.3898 v -74 -74 h -13.33334 -13.33333 l -0.66667,42.66667 -0.66666,42.66666 -4.61692,-8 c -2.53931,-4.4 -5.30591,-9.2 -6.148,-10.66666 -0.84209,-1.46667 -3.60617,-6.26667 -6.1424,-10.66667 -2.53623,-4.4 -5.46963,-9.5 -6.51867,-11.33333 -1.04904,-1.83333 -2.20734,-3.63333 -2.57401,-4 -0.36667,-0.36667 -1.32065,-1.86667 -2.11996,-3.33333 -5.95468,-10.92631 -9.33619,-16.667 -12.68229,-21.5304 -2.12543,-3.0892 -3.86442,-6.19518 -3.86442,-6.90216 0,-0.70699 -1.74072,-3.14888 -3.86828,-5.42643 l -3.86828,-4.14101 h -15.36981 c -12.19479,0 -15.80264,0.43282 -17.46505,2.09524 -1.85191,1.8519 -2.09524,10.27994 -2.09524,72.57142 0,62.29148 0.24333,70.71952 2.09524,72.57143 2.65424,2.65424 22.86417,2.98345 26.30888,0.42857 z m 147.26254,0.82628 c 2.92353,-0.78347 3.00061,-1.26725 3.02407,-18.98179 l 0.0241,-18.17782 9.93841,-13.32083 c 5.4661,-7.32645 10.5044,-13.50948 11.1961,-13.74007 0.6918,-0.23057 1.6802,0.9638 2.1964,2.65416 0.5163,1.69038 2.1305,5.7734 3.5872,9.0734 3.3466,7.58146 6.3349,14.56808 7.6988,18 3.7864,9.52767 7.1843,17.88582 8.6727,21.33334 0.9499,2.2 2.518,5.91417 3.4849,8.25372 2.1551,5.21485 3.8754,5.70986 19.844,5.70986 21.6248,0 21.6139,0.016 13.2736,-19.63025 -0.7005,-1.65 -1.8124,-4.35 -2.4709,-6 -1.7204,-4.31019 -4.7612,-11.38191 -7.9953,-18.59352 -1.5441,-3.44309 -2.8074,-6.90124 -2.8074,-7.68475 0,-0.78352 -0.5496,-2.46644 -1.2213,-3.73982 -1.6656,-3.15766 -4.1851,-9.16602 -10.7554,-25.64858 -3.0694,-7.7 -6.0246,-14.86657 -6.5672,-15.92573 -0.5425,-1.05915 -0.2367,-2.85915 0.6797,-4 3.5319,-4.39717 14.7152,-19.75142 18.5308,-25.44202 2.2,-3.28107 4.6913,-6.69966 5.5361,-7.59688 0.8448,-0.89722 2.8542,-3.76416 4.4654,-6.37098 4.6604,-7.54069 2.6683,-8.66438 -15.3599,-8.66438 h -15.032 l -3.8048,4.57134 c -5.5505,6.66887 -15.6979,20.29578 -36.47144,48.97781 l -6,8.2842 -0.35956,-29.85419 c -0.26308,-21.84295 -0.79978,-30.13384 -2,-30.89627 -2.43502,-1.5468 -27.40538,-1.30252 -30.39476,0.29735 -2.50084,1.33841 -2.57902,3.55928 -2.57902,73.26707 0,67.05704 0.15678,71.97815 2.33334,73.24588 2.52076,1.46822 24.42176,1.916 29.33333,0.59975 z M 402.65945,397.96018 c -0.0552,-1.28334 -2.61274,-9.83334 -5.68347,-19 l -5.58313,-16.66667 -28.13172,-0.35931 c -21.51896,-0.27485 -28.43188,0.0385 -29.40865,1.33334 -1.78315,2.36366 -11.09271,31.25517 -11.09271,34.42536 0,2.5208 1.22757,2.60061 40,2.60061 37.24456,0 39.99309,-0.16073 39.89968,-2.33333 z m 151.1357,1.52018 c 0.44722,-0.44722 -0.685,-3.18636 -2.51607,-6.08694 -1.83107,-2.9006 -4.4172,-7.18468 -5.74696,-9.52019 -1.32977,-2.33552 -7.97733,-13.54639 -14.77235,-24.91305 -6.79501,-11.36667 -13.39764,-22.46667 -14.67249,-24.66667 -1.27484,-2.2 -5.19153,-8.8 -8.70375,-14.66666 -3.51222,-5.86667 -7.07178,-11.86667 -7.91016,-13.33334 -3.77617,-6.60617 -7.68932,-12.66666 -8.17864,-12.66666 -0.29422,0 -0.53496,24 -0.53496,53.33333 v 53.33333 h 31.11111 c 17.11112,0 31.47703,-0.36592 31.92427,-0.81315 z M 380.35579,331.58638 c 0.38894,-0.38893 -3.50877,-13.30325 -8.66154,-28.69851 l -9.36868,-27.99136 -9.06094,27.03184 c -4.98352,14.86751 -9.08582,27.78183 -9.11624,28.6985 -0.0416,1.25276 4.35966,1.66666 17.72248,1.66666 9.77779,0 18.096,-0.31821 18.48492,-0.70713 z"
       id="path90"
       inkscape:connector-curvature="0" />
  </g>
  <g
     inkscape:groupmode="layer"
     id="layer2"
     inkscape:label="Layer 2"
     style="display:inline">
    <path
       style="color:#000000;font-style:normal;font-variant:normal;font-weight:normal;font-stretch:normal;font-size:medium;line-height:normal;font-family:sans-serif;font-variant-ligatures:normal;font-variant-position:normal;font-variant-caps:normal;font-variant-numeric:normal;font-variant-alternates:normal;font-feature-settings:normal;text-indent:0;text-align:start;text-decoration:none;text-decoration-line:none;text-decoration-style:solid;text-decoration-color:#000000;letter-spacing:normal;word-spacing:normal;text-transform:none;writing-mode:lr-tb;direction:ltr;text-orientation:mixed;dominant-baseline:auto;baseline-shift:baseline;text-anchor:start;white-space:normal;shape-padding:0;clip-rule:nonzero;display:inline;overflow:visible;visibility:visible;opacity:1;isolation:auto;mix-blend-mode:normal;color-interpolation:sRGB;color-interpolation-filters:linearRGB;solid-color:#000000;solid-opacity:1;vector-effect:none;fill-opacity:1;fill-rule:nonzero;stroke:none;stroke-width:1.33333325;stroke-linecap:butt;stroke-linejoin:miter;stroke-miterlimit:4;stroke-dasharray:none;stroke-dashoffset:0;stroke-opacity:1;color-rendering:auto;image-rendering:auto;shape-rendering:auto;text-rendering:auto;enable-background:accumulate"
       d="m 554.56445,657.00391 c -18.74038,0.6397 -32.87264,3.46146 -51.0039,9.61718 -49.46465,16.79369 -92.43524,53.96514 -115.63867,100.04102 -11.65515,23.14402 -18.7206,47.54274 -21.13282,72.97266 -0.18177,1.91636 -0.43839,3.80866 -0.70117,5.29687 -0.13139,0.74411 -0.26482,1.3867 -0.38867,1.875 -0.12385,0.4883 -0.27231,0.85421 -0.28516,0.875 0.0552,-0.0892 -0.11971,0.0991 -0.47656,0.23438 -0.35685,0.13532 -0.87267,0.27129 -1.48633,0.38671 -1.22731,0.23086 -2.85091,0.38357 -4.5332,0.39063 -17.18137,0.072 -41.9355,7.04369 -60.53125,17.00391 -19.49296,10.44075 -36.99046,25.22002 -49.17969,41.55664 -6.06569,8.12953 -16.13942,25.72696 -19.0957,33.40039 -1.64544,4.27096 -3.50053,8.9834 -4.10352,10.42187 -4.06891,9.70639 -5.34135,21.43076 -5.32617,48.3418 0.0171,30.27603 1.35778,39.21223 8.49219,56.64063 18.87974,46.1207 58.61761,79.8806 106.68164,90.625 2.74781,0.6143 5.39428,1.2192 7.44531,1.7012 2.05103,0.4819 3.57588,0.8644 3.82813,0.9453 0.21403,0.069 0.16368,0.032 0.20117,0.035 0.0375,0 0.0767,0.01 0.125,0.01 0.0965,0 0.22754,0.01 0.39453,0.01 0.33397,0.01 0.81575,0.016 1.44531,0.023 1.25912,0.015 3.10613,0.029 5.51367,0.043 4.81509,0.029 11.86855,0.057 20.91993,0.084 18.10276,0.054 44.19602,0.1045 76.33789,0.1484 64.28373,0.088 152.7667,0.1502 249.93359,0.1661 148.58528,0.024 237.2102,-0.035 289.46289,-0.295 26.12631,-0.1299 43.15931,-0.3095 54.05271,-0.5547 5.4468,-0.1225 9.3574,-0.2624 12.1094,-0.4199 2.752,-0.1575 4.3177,-0.3209 5.2051,-0.5449 11.6093,-2.9304 14.9874,-4.1354 24.6484,-8.7949 22.0062,-10.6134 40.8301,-29.2587 52.1133,-51.6055 2.5145,-4.9801 4.8276,-11.1307 6.3477,-16.3789 0.76,-2.6241 1.3215,-5.0197 1.6074,-6.9453 0.1429,-0.9628 0.2177,-1.8081 0.209,-2.5215 -0.01,-0.7134 -0.076,-1.2948 -0.3536,-1.791 -0.1317,-0.2353 -0.2732,-0.4406 -0.4707,-0.6152 -0.1974,-0.1747 -0.4896,-0.3208 -0.8066,-0.3086 -0.317,0.012 -0.5831,0.1659 -0.7812,0.3457 -0.1982,0.1798 -0.3554,0.3971 -0.5118,0.6582 -0.6255,1.0443 -1.2494,2.8785 -2.1074,5.83 -6.654,22.8888 -20.6916,43.5348 -38.875,57.1993 -12.4561,9.3605 -20.0129,13.2494 -35.8008,18.4238 L 1054.4082,1146 H 703.16016 c -175.65767,0 -263.49748,-8e-4 -308.86133,-0.3477 -22.68193,-0.1734 -34.7469,-0.4334 -41.8418,-0.8222 -7.0949,-0.3888 -9.17246,-0.8924 -12.06445,-1.586 -27.37006,-6.5638 -47.15315,-16.6027 -67.875,-34.4375 -18.51435,-15.9348 -31.23089,-35.1459 -42.57617,-64.3808 -2.90592,-7.4881 -4.81357,-22.6446 -5.34961,-38.1778 -0.53605,-15.53314 0.28231,-31.52101 2.63672,-40.74995 3.468,-13.59396 4.45499,-16.45148 9.35156,-27.08789 15.98647,-34.72611 49.06267,-64.18317 86.375,-76.90625 C 334.08871,857.70746 353.5163,854 362.08008,854 c 3.94518,0 6.66615,-0.62365 8.36523,-2.53906 1.69909,-1.91542 2.22071,-4.88695 2.22071,-9.31055 0,-25.09861 14.14036,-65.49391 32.88281,-93.66601 11.53794,-17.34288 34.96869,-40.68093 52.67773,-52.46485 24.33758,-16.19466 42.53238,-23.85186 73.09961,-30.75781 20.53887,-4.64027 52.2827,-4.67078 72.52539,-0.0742 46.72407,10.60981 82.01332,31.00316 110.94141,64.0918 12.41804,14.20404 19.70029,25.08918 28.44141,42.52148 2.09662,4.18127 4.03402,7.6354 5.65429,10.11524 0.81014,1.23991 1.53954,2.23569 2.18555,2.96875 0.64601,0.73305 1.15423,1.23486 1.83203,1.41211 0.49277,0.12886 1.07018,0.12542 1.80078,0.0723 0.7306,-0.0532 1.59632,-0.17084 2.55274,-0.34375 1.91282,-0.34582 4.18586,-0.91079 6.38476,-1.61328 35.73432,-11.41613 75.17208,-10.8346 109.63281,1.60937 24.76748,8.94369 46.11098,22.50581 64.56055,41.01954 26.55287,26.64522 43.10059,59.45435 49.11719,97.39648 0.84806,5.34808 1.54041,8.94157 2.22265,11.25391 0.34113,1.15616 0.6738,1.99377 1.07032,2.60156 0.39651,0.60779 0.95255,1.04101 1.5957,1.04101 0.43251,0 0.94755,-0.11418 1.71094,-0.29687 0.76339,-0.18269 1.72455,-0.4427 2.82422,-0.76367 2.19933,-0.64194 4.95239,-1.52477 7.74019,-2.4961 57.395,-19.99684 120.0667,12.9561 138.5,72.8614 0.7893,2.5651 1.5017,4.4178 2.1758,5.5957 0.3371,0.5889 0.6461,1.0222 1.086,1.3027 0.2199,0.1402 0.4996,0.2377 0.7968,0.2109 0.2972,-0.027 0.5643,-0.1814 0.752,-0.3691 0.7395,-0.7395 0.7621,-1.8813 0.6035,-3.4492 -0.1586,-1.5679 -0.6066,-3.6084 -1.3359,-6.1172 -11.6177,-39.96338 -44.6134,-70.66333 -85.2246,-79.29106 -9.6872,-2.05801 -22.6879,-2.31522 -34.9532,-1.18554 -12.2652,1.12967 -23.7639,3.62488 -30.51559,7.23828 -0.7677,0.41086 -1.34539,0.56005 -1.68946,0.5293 -0.34406,-0.0308 -0.542,-0.14923 -0.80468,-0.63086 -0.52537,-0.96327 -0.84375,-3.35525 -0.84375,-7.22852 0,-5.07102 -1.82329,-13.82923 -4.56836,-23.41992 -2.74508,-9.59069 -6.41884,-19.96892 -10.16016,-28.10547 -20.34632,-44.24886 -59.14451,-78.96805 -105.16016,-94.10156 -20.83086,-6.85079 -32.46753,-8.6052 -56.77929,-8.56446 -22.99417,0.0386 -34.68288,1.6639 -52.50196,7.3086 -2.45331,0.77716 -4.74642,1.41901 -6.44726,1.82226 -0.85042,0.20163 -1.55442,0.34297 -2.03906,0.41211 -0.19617,0.028 -0.32413,0.0362 -0.43165,0.041 -0.0369,-0.0542 -0.0128,-0.0213 -0.0547,-0.0937 -0.11443,-0.19811 -0.27158,-0.48047 -0.46289,-0.83399 -0.38264,-0.70703 -0.90426,-1.69955 -1.52539,-2.89843 -1.24226,-2.39778 -2.88358,-5.62667 -4.6211,-9.10743 -23.09657,-46.26928 -66.03893,-84.01151 -114.05273,-100.22851 -23.88906,-8.06869 -32.75672,-9.64351 -58.70313,-10.42578 -7.58986,-0.22884 -14.34695,-0.25816 -20.59375,-0.0449 z m 0.0508,1.32812 c 6.20756,-0.20966 12.93434,-0.17939 20.50391,0.0488 25.90239,0.78095 34.47157,2.30367 58.31641,10.35742 47.64761,16.09332 90.35624,53.62128 113.28711,99.5586 1.74008,3.48591 3.38222,6.72064 4.6289,9.12695 0.62334,1.20315 1.14773,2.20042 1.53711,2.91992 0.19469,0.35975 0.35517,0.64831 0.48047,0.86523 0.1253,0.21693 0.13516,0.29002 0.32617,0.4961 0.18323,0.19768 0.34157,0.22238 0.45899,0.24609 0.11742,0.0237 0.21691,0.0273 0.32226,0.0273 0.21071,5e-5 0.44262,-0.0228 0.72071,-0.0625 0.55616,-0.0793 1.28639,-0.22839 2.16015,-0.43555 1.74752,-0.41432 4.06107,-1.06206 6.54102,-1.84766 17.73008,-5.6165 29.1709,-7.2096 52.10351,-7.24804 24.24758,-0.0406 35.60352,1.67193 56.35938,8.49804 45.65186,15.01387 84.17716,49.48788 104.36523,93.39258 3.69981,8.04627 7.36137,18.38334 10.08985,27.91602 2.72847,9.53267 4.51757,18.30895 4.51757,23.05273 0,3.93159 0.19347,6.37929 1.00391,7.86524 0.40522,0.74297 1.08274,1.25106 1.85742,1.32031 0.77468,0.0692 1.55768,-0.20882 2.4375,-0.67969 6.41667,-3.4341 17.84737,-5.96592 30.00777,-7.08594 12.1605,-1.12002 25.0837,-0.84998 34.5547,1.16211 40.1259,8.52461 72.7409,38.86823 84.2207,78.35741 0.7159,2.4626 1.1463,4.4505 1.291,5.8809 0.1354,1.3385 -0.084,2.027 -0.207,2.2207 -0.1193,-0.1066 -0.3045,-0.2894 -0.5469,-0.7129 -0.5712,-0.9982 -1.2832,-2.8063 -2.0586,-5.3262 -18.6428,-60.58617 -82.1052,-93.97436 -140.2148,-73.7285 -2.7672,0.96412 -5.50273,1.84091 -7.67382,2.47461 -1.08554,0.31685 -2.03167,0.57333 -2.76172,0.74804 -0.73005,0.17471 -1.29497,0.25977 -1.40039,0.25977 -0.0854,0 -0.21002,-0.024 -0.47852,-0.43555 -0.26849,-0.41156 -0.58582,-1.15735 -0.9082,-2.25 -0.64476,-2.1853 -1.33871,-5.75787 -2.18359,-11.08593 -6.05724,-38.19841 -22.74642,-71.29207 -49.49024,-98.12891 -18.58281,-18.64743 -40.11033,-32.32518 -65.05273,-41.33203 -34.75375,-12.54979 -74.47463,-13.13162 -110.49219,-1.625 -2.14164,0.68419 -4.37181,1.23675 -6.2168,1.57031 -0.92249,0.16678 -1.74963,0.27797 -2.4121,0.32617 -0.66248,0.0482 -1.17753,0.0178 -1.36524,-0.0312 -0.0856,-0.0224 -0.59209,-0.34822 -1.16992,-1.0039 -0.57784,-0.65569 -1.28222,-1.61023 -2.07031,-2.81641 -1.57619,-2.41237 -3.49724,-5.83448 -5.57813,-9.98438 -8.77457,-17.49902 -16.1584,-28.53867 -28.6289,-42.80273 -29.10336,-33.28911 -64.70557,-53.85418 -111.64844,-64.51367 -20.53551,-4.66305 -52.29156,-4.6304 -73.11524,0.0742 -30.66342,6.92768 -49.11306,14.68987 -73.54492,30.94726 -17.93194,11.93224 -41.35637,35.2608 -53.04883,52.83594 -18.89571,28.40247 -33.10547,68.81052 -33.10547,94.40625 0,4.31319 -0.56302,6.93355 -1.88671,8.42578 -1.3237,1.49224 -3.56233,2.08985 -7.36719,2.08985 -8.94055,0 -28.22899,3.71357 -39.55664,7.57617 -37.67896,12.8481 -70.99573,42.50946 -87.1543,77.60937 -4.90637,10.65769 -5.9596,13.70663 -9.43164,27.31641 -2.42653,9.51164 -3.2184,25.51449 -2.67969,41.12498 0.53871,15.6105 2.38988,30.7519 5.44141,38.6152 11.39572,29.3649 24.26159,48.8262 42.94922,64.9102 20.85286,17.9474 40.9029,28.1207 68.43164,34.7226 2.89215,0.6937 5.15797,1.2296 12.30273,1.6212 7.14477,0.3914 19.2158,0.6507 41.9043,0.8242 45.377,0.3469 133.21538,0.3477 308.87305,0.3477 h 351.46092 l 13.8437,-4.5371 c 15.8572,-5.1972 23.6633,-9.2167 36.1856,-18.627 18.4352,-13.8537 32.6193,-34.7278 39.3535,-57.8926 0.8493,-2.9214 1.5155,-4.7524 1.9727,-5.5156 0.076,-0.127 0.1229,-0.1735 0.1757,-0.2363 0.032,0.044 0.046,0.052 0.086,0.123 0.072,0.1286 0.1781,0.5515 0.1855,1.1563 0.01,0.6048 -0.059,1.3922 -0.1953,2.3086 -0.2721,1.8328 -0.8199,4.1856 -1.5683,6.7695 -1.4969,5.1679 -3.7944,11.2714 -6.2579,16.1504 -11.1486,22.0802 -29.7803,40.5269 -51.5039,51.0039 -9.6333,4.6461 -12.809,5.7787 -24.3945,8.7031 -0.6545,0.1652 -2.2305,0.3519 -4.9551,0.5078 -2.7245,0.156 -6.626,0.2937 -12.0644,0.4161 -10.8769,0.2447 -27.9062,0.4247 -54.0293,0.5547 -52.2462,0.2598 -140.87024,0.3194 -289.45508,0.2949 -97.16644,-0.016 -185.64871,-0.078 -249.93164,-0.166 -32.14146,-0.044 -58.23453,-0.094 -76.33594,-0.1485 -9.0507,-0.027 -16.10349,-0.055 -20.91601,-0.084 -2.40626,-0.014 -4.25164,-0.028 -5.50586,-0.043 -0.62712,-0.01 -1.10679,-0.014 -1.43164,-0.022 -0.16243,0 -0.28659,-0.01 -0.36719,-0.01 -0.0356,0 -0.0596,0 -0.0742,-0.01 -0.51379,-0.1594 -1.82501,-0.4762 -3.83008,-0.9473 -2.0573,-0.4834 -4.7107,-1.0918 -7.46289,-1.707 -47.63647,-10.6489 -87.01863,-44.1013 -105.73633,-89.8262 -7.09671,-17.3364 -8.37549,-25.899 -8.39258,-56.13678 -0.0152,-26.8687 1.26158,-38.38169 5.22071,-47.82617 0.62663,-1.49487 2.47105,-6.17918 4.11914,-10.45703 2.83412,-7.35636 12.98513,-25.12795 18.91992,-33.08204 12.05384,-16.15516 29.41643,-30.82953 48.74023,-41.17968 18.38851,-9.84921 43.08472,-16.77711 59.90821,-16.84766 1.75776,-0.007 3.44183,-0.16164 4.77344,-0.41211 0.6658,-0.12523 1.2422,-0.27268 1.71289,-0.45117 0.47069,-0.1785 0.86035,-0.33212 1.13672,-0.7793 0.20836,-0.33713 0.3091,-0.71103 0.44531,-1.24804 0.1362,-0.53702 0.27289,-1.20635 0.4082,-1.97266 0.27062,-1.53262 0.52977,-3.44928 0.71484,-5.40039 2.39668,-25.26606 9.41482,-49.49878 20.99805,-72.5 23.03547,-45.74234 65.75515,-82.70228 114.875,-99.37891 18.04949,-6.12796 32.00429,-8.92179 50.62695,-9.55078 z M 1150.625,1017.7246 c -0.2306,-0.045 -0.4859,0.056 -0.6094,0.1582 -0.2468,0.2048 -0.2604,0.3505 -0.3105,0.5 -0.05,0.1495 -0.087,0.31 -0.1231,0.5 -0.143,0.7601 -0.2525,1.9978 -0.3476,3.7207 -0.1903,3.4459 -0.3028,8.7715 -0.3028,15.3965 0,6.625 0.1125,11.9506 0.3028,15.3965 0.095,1.7229 0.2046,2.9606 0.3476,3.7207 0.036,0.19 0.073,0.3505 0.1231,0.5 0.05,0.1495 0.064,0.2952 0.3105,0.5 0.1235,0.1024 0.3788,0.2034 0.6094,0.1582 0.2306,-0.045 0.3608,-0.174 0.4375,-0.2656 0.1534,-0.1832 0.1874,-0.3138 0.2383,-0.4727 0.1854,-0.579 0.314,-1.4636 0.4433,-2.6914 0.1294,-1.2278 0.2447,-2.7695 0.3418,-4.5293 0.1944,-3.5195 0.3145,-7.9043 0.3145,-12.3164 0,-4.4121 -0.1201,-8.7969 -0.3145,-12.3164 -0.097,-1.7598 -0.2124,-3.3015 -0.3418,-4.5293 -0.1293,-1.2278 -0.2579,-2.1123 -0.4433,-2.6914 -0.051,-0.1589 -0.085,-0.2895 -0.2383,-0.4727 -0.077,-0.092 -0.2069,-0.2204 -0.4375,-0.2656 z m -0.068,5.3906 c 0.068,0.8559 0.1422,1.6102 0.1993,2.6426 0.1926,3.4888 0.3125,7.8543 0.3125,12.2422 0,4.3879 -0.1199,8.7534 -0.3125,12.2422 -0.057,1.0324 -0.1309,1.7867 -0.1993,2.6426 -0.178,-3.4074 -0.291,-8.4634 -0.291,-14.8848 0,-6.4214 0.113,-11.4774 0.291,-14.8848 z"
       id="path115"
       inkscape:connector-curvature="0"
       sodipodi:nodetypes="cssccscccccsscssccccscccsccccscccccccccccccccscscccscssssssssssscccccssssccssccscccsscsscccssssccccccccsscccccsccscccccscccssscccsscccccccsscscsscsccccsscsssssssscssccscsccccccccccccccccssccccsccccscssscccccscsscccccccscccccscccscccccccsccsc" />
  </g>
</svg>
